<svg width="32" height="32" viewBox="0 0 32 32" fill="none" xmlns="http://www.w3.org/2000/svg">
<path fill-rule="evenodd" clip-rule="evenodd" d="M0.395396 0.122182C0.0151035 0.353982 0.00172927 0.43104 0.00185426 2.38706C0.00191676 4.38777 0.0204783 4.48239 0.456018 4.705C0.88562 4.92461 1.42947 4.67556 1.56196 4.19859C1.59714 4.07191 1.62608 3.44094 1.62627 2.79641L1.62664 1.6246L2.79845 1.62423C3.44298 1.62404 4.07395 1.5951 4.20063 1.55992C4.6776 1.42742 4.92665 0.883579 4.70704 0.453977C4.48418 0.0179999 4.39124 -0.000124095 2.3766 8.97927e-07C0.720191 0.000125891 0.581448 0.00868793 0.395396 0.122182ZM27.6296 0.109183C27.3481 0.25255 27.16 0.613468 27.2148 0.905203C27.27 1.19962 27.5236 1.48286 27.8011 1.55992C27.9278 1.5951 28.5588 1.62404 29.2033 1.62423L30.3751 1.6246L30.3755 2.79641C30.3757 3.44094 30.4046 4.07191 30.4398 4.19859C30.5723 4.67556 31.1161 4.92461 31.5457 4.705C31.9813 4.48239 31.9998 4.38777 31.9999 2.38706C32 0.43104 31.9866 0.353982 31.6064 0.122182C31.4203 0.00868793 31.2816 0.000125891 29.6251 8.97927e-07C28.0527 -0.000124095 27.8189 0.0126877 27.6296 0.109183ZM5.2827 4.87155C5.21395 4.89999 5.0874 4.99886 5.00146 5.09129L4.84522 5.25928L4.82685 7.10975C4.80685 9.12939 4.81904 9.21763 5.15033 9.45393C5.34119 9.59005 5.38325 9.59293 7.19153 9.59293C8.85026 9.59293 9.055 9.58174 9.20618 9.48268C9.59216 9.22988 9.59497 9.21313 9.59497 7.18949C9.59497 4.62375 9.78252 4.81024 7.2076 4.81587C6.21765 4.81806 5.35144 4.84312 5.2827 4.87155ZM11.5755 4.93855C11.1392 5.20454 11.0885 5.78675 11.4686 6.1668L11.6761 6.37435H15.4322H19.1882L19.1883 7.63991C19.1884 9.02558 19.2257 9.20126 19.5739 9.45637C19.7942 9.61786 20.2071 9.61786 20.4275 9.45637C20.7922 9.18907 20.8129 9.06802 20.813 7.20043C20.8131 5.30253 20.7887 5.15948 20.4263 4.93855C20.2242 4.81531 20.122 4.81237 16.0009 4.81237C11.8797 4.81237 11.7776 4.81531 11.5755 4.93855ZM22.8063 4.90405C22.7168 4.95355 22.5902 5.07261 22.5251 5.1686C22.4156 5.33009 22.4068 5.48096 22.4068 7.18949C22.4068 9.77923 22.2205 9.59293 24.8102 9.59293C26.6185 9.59293 26.6606 9.59005 26.8514 9.45393C27.1828 9.21757 27.1949 9.1297 27.1749 7.10593L27.1565 5.25166L26.9523 5.04742L26.7481 4.84318L24.8587 4.82862C23.3113 4.81674 22.9398 4.83037 22.8063 4.90405ZM8.0013 7.1868V7.99926H7.18885H6.37639V7.22849C6.37639 6.80451 6.39514 6.43891 6.41807 6.41603C6.44095 6.3931 6.80655 6.37435 7.23053 6.37435H8.0013V7.1868ZM25.6116 7.20243L25.6291 7.99926H24.8148H24.0005V7.18493V6.3706L24.7973 6.3881L25.5941 6.4056L25.6116 7.20243ZM11.6304 8.10876C11.3427 8.25531 11.1608 8.61235 11.2181 8.91784C11.2798 9.24688 11.5954 9.5403 11.9423 9.59111C12.095 9.61342 13.3039 9.62299 14.6288 9.61236C16.8051 9.5948 17.0541 9.5823 17.2059 9.48268C17.5802 9.23732 17.6913 8.76641 17.4652 8.38368C17.2402 8.00282 17.2117 7.99926 14.3978 7.99939C12.0908 7.99945 11.8242 8.01001 11.6304 8.10876ZM5.26832 11.2793C5.15727 11.3275 5.00971 11.46 4.9404 11.5736C4.82485 11.7633 4.81441 11.8871 4.81422 13.0771L4.81397 14.3739L3.57966 14.3774C2.18817 14.3814 1.98462 14.4225 1.76945 14.7425C1.48215 15.1698 1.64495 15.7375 2.10974 15.929C2.23811 15.9818 5.86042 15.9961 16.1151 15.984L29.9473 15.9676L30.1612 15.7342C30.429 15.4418 30.4554 15.0743 30.2323 14.7425C30.0171 14.4225 29.8136 14.3814 28.4221 14.3774L27.1878 14.3739L27.1875 13.0771C27.1873 11.8867 27.177 11.7634 27.0612 11.5734C26.7952 11.1372 26.213 11.0865 25.8329 11.4665L25.6254 11.6741V13.024V14.3739H20.8131H16.0009L16.0007 13.1084C16.0007 11.6646 15.9608 11.5053 15.5466 11.2935C15.117 11.0739 14.5731 11.323 14.4406 11.7999C14.4055 11.9266 14.3765 12.5576 14.3763 13.2021L14.376 14.3739H10.3762H6.37639V13.5927V12.8115H9.26786C11.9488 12.8115 12.1748 12.8032 12.3722 12.6973C12.6069 12.5715 12.8135 12.2445 12.8135 11.999C12.8135 11.7536 12.6069 11.4266 12.3722 11.3008C12.1734 11.1942 11.9373 11.1868 8.81476 11.189C6.08465 11.191 5.43313 11.2076 5.26832 11.2793ZM18.0892 11.2744C17.4204 11.5693 17.4786 12.5471 18.1773 12.7514C18.3295 12.796 19.2608 12.8122 20.9381 12.7994C23.4647 12.7803 23.4696 12.78 23.6708 12.6365C24.0881 12.3388 24.0881 11.6593 23.6708 11.3616L23.4692 11.2178L20.8756 11.2036C18.801 11.1922 18.2434 11.2064 18.0892 11.2744ZM5.18102 17.729C4.85153 17.9334 4.81397 18.0838 4.81422 19.1958C4.81441 20.1102 4.82766 20.239 4.94059 20.4242C5.17802 20.8136 5.1522 20.8111 8.82832 20.8111C11.935 20.8111 12.1736 20.8034 12.3722 20.6969C12.7496 20.4945 12.8135 20.2822 12.8135 19.232C12.8135 18.2155 12.7604 17.9885 12.4689 17.7592C12.2322 17.573 11.77 17.573 11.5332 17.7592C11.2894 17.951 11.1886 18.2397 11.1886 18.7467V19.1862H8.78251H6.37639V18.6831C6.37639 18.1068 6.28196 17.8625 6.00347 17.7186C5.76542 17.5955 5.38838 17.6002 5.18102 17.729ZM14.7706 17.7456C14.661 17.8124 14.5371 17.9311 14.4953 18.0094C14.3869 18.2118 14.408 18.6441 14.5358 18.8391C14.7579 19.1781 14.8174 19.1862 17.0914 19.1862H19.1882V19.6715C19.1882 20.2459 19.3081 20.5245 19.6296 20.6969C19.8989 20.8413 20.1024 20.8413 20.3718 20.6969C20.7492 20.4945 20.8131 20.2822 20.8131 19.232C20.8131 18.2155 20.76 17.9885 20.4685 17.7592C20.298 17.6251 20.2706 17.6237 17.633 17.624C15.106 17.6242 14.9595 17.6304 14.7706 17.7456ZM22.7441 17.7667C22.3795 18.012 22.3682 18.1118 22.3885 20.9021C22.4057 23.2574 22.414 23.4166 22.529 23.6068C22.8375 24.1168 23.5665 24.1157 23.878 23.6047C23.9926 23.4168 24 23.2772 24.0002 21.2988L24.0005 19.1929L25.3743 19.1739L26.7482 19.1549L26.9414 18.9616C27.3075 18.5951 27.2448 17.9826 26.815 17.7287C26.6594 17.6368 26.4081 17.6237 24.7969 17.6237C22.9832 17.6237 22.9534 17.6258 22.7441 17.7667ZM16.3945 20.9336C16.007 21.1698 16.0009 21.2102 16.0009 23.5266V25.6233H13.8385H11.6761L11.4686 25.8309C11.0885 26.2109 11.1392 26.7931 11.5755 27.0591C11.7742 27.1803 11.8847 27.1853 14.3947 27.1855C17.239 27.1857 17.2341 27.1863 17.4759 26.8296C17.5878 26.6645 17.5945 26.504 17.5945 23.9984C17.5945 21.4928 17.5878 21.3324 17.4759 21.1672C17.2351 20.812 16.7616 20.7097 16.3945 20.9336ZM25.9924 20.9126C25.6214 21.1512 25.6254 21.118 25.6254 23.9984C25.6254 26.3555 25.6365 26.6541 25.7304 26.8129C25.9843 27.2428 26.5969 27.3055 26.9632 26.9392L27.1565 26.7459V23.9984V21.2509L26.9592 21.0536C26.7145 20.8089 26.2573 20.7422 25.9924 20.9126ZM5.43975 22.4177C5.21145 22.463 4.96578 22.6579 4.88203 22.8601C4.82985 22.986 4.81385 23.5752 4.82685 24.8917L4.84522 26.746L5.04946 26.9502L5.2537 27.1545L7.10798 27.1729C9.13174 27.1929 9.21961 27.1807 9.45597 26.8494C9.59209 26.6585 9.59497 26.6165 9.59497 24.8082C9.59497 22.2326 9.76108 22.4085 7.31678 22.3959C6.36989 22.391 5.52525 22.4008 5.43975 22.4177ZM11.7719 22.4421C11.3236 22.5719 11.0831 23.1284 11.2956 23.5441C11.5056 23.955 11.6878 24.0052 12.8966 23.9848L13.9484 23.9672L14.1622 23.7337C14.3373 23.5425 14.376 23.4509 14.376 23.2274C14.376 22.8776 14.1669 22.5561 13.8738 22.4551C13.618 22.3671 12.0645 22.3574 11.7719 22.4421ZM19.7909 22.4393C19.6926 22.4679 19.5551 22.5421 19.4854 22.6042C19.2124 22.8473 19.1882 23.0268 19.1882 24.8109C19.1882 26.6939 19.2131 26.8384 19.5751 27.0591C19.7701 27.178 19.8858 27.1852 21.5943 27.1846C23.5787 27.1838 23.6141 27.1781 23.858 26.8163C24.0952 26.4642 24.0118 26.0388 23.6495 25.7538C23.493 25.6308 23.4078 25.6233 22.1484 25.6233H20.8131L20.813 24.3578C20.8129 23.2764 20.797 23.061 20.7036 22.8779C20.5171 22.5122 20.1487 22.3351 19.7909 22.4393ZM8.0013 24.8127V25.6271L7.20447 25.6096L6.40764 25.5921L6.39014 24.7952L6.37264 23.9984H7.18697H8.0013V24.8127ZM0.439206 27.297C0.0211032 27.5227 0.00191676 27.6248 0.00204175 29.6231C0.00222924 32.1603 -0.160887 31.998 2.3891 31.9979C4.38981 31.9978 4.48443 31.9792 4.70704 31.5437C4.92665 31.1141 4.6776 30.5702 4.20063 30.4378C4.07395 30.4026 3.44498 30.3736 2.80295 30.3734L1.6357 30.3731L1.61552 29.0733C1.59827 27.9589 1.57965 27.7496 1.48515 27.6055C1.24129 27.2337 0.798437 27.1032 0.439206 27.297ZM30.8795 27.2921C30.43 27.5278 30.4087 27.6043 30.3862 29.0651L30.366 30.3731L29.1988 30.3734C28.5568 30.3736 27.9278 30.4026 27.8011 30.4378C27.3241 30.5702 27.0751 31.1141 27.2947 31.5437C27.5173 31.9792 27.6119 31.9978 29.6126 31.9979C31.5687 31.998 31.6457 31.9846 31.8775 31.6043C31.991 31.4184 31.9996 31.2796 31.9998 29.6367C32 27.7148 31.9767 27.5577 31.6598 27.35C31.4059 27.1836 31.126 27.1629 30.8795 27.2921Z" fill="white"/>
</svg>
